<svg xmlns="http://www.w3.org/2000/svg" xmlns:xlink="http://www.w3.org/1999/xlink" viewBox="0 0 288.61585 137"><defs><style>.a{fill:url(#a);}</style><linearGradient id="a" x1="1.29767" y1="71.51634" x2="288.8587" y2="71.51634" gradientUnits="userSpaceOnUse"><stop offset="0" stop-color="#fff"/><stop offset="0.48786" stop-color="#838383"/><stop offset="1" stop-color="#310002"/></linearGradient></defs><title>bg_fuel2</title><path class="a" d="M260.2962,139.51634c-4.127-60.32031-54.64648-107.5-115.21777-107.5S33.9881,79.196,29.86066,139.51634H1.29767a144.00308,144.00308,0,0,1,287.561,0Z" transform="translate(-0.77051 -3.01634)"/><path d="M145.07843,4.01634a143.507,143.507,0,0,1,143.25168,135H260.76245c-4.37323-60.358-55.00683-107.5-115.684-107.5s-111.31079,47.142-115.684,107.5H1.82677a143.50691,143.50691,0,0,1,143.25166-135m0-1a144.50513,144.50513,0,0,0-144.30792,137H30.32832a114.9946,114.9946,0,0,1,229.50023,0h29.5578a144.50512,144.50512,0,0,0-144.30792-137Z" transform="translate(-0.77051 -3.01634)"/><path d="M30.8631,139.51634c4.12353-59.76611,54.19043-106.5,114.21533-106.5,60.02539,0,110.0918,46.73389,114.21582,106.5Z" transform="translate(-0.77051 -3.01634)"/><path d="M145.07843,33.51634a114.00248,114.00248,0,0,1,113.67868,105.5H31.39974a114.00252,114.00252,0,0,1,113.67869-105.5m0-1a115.0005,115.0005,0,0,0-114.75012,107.5H259.82855a115.00049,115.00049,0,0,0-114.75012-107.5Z" transform="translate(-0.77051 -3.01634)"/></svg>