<svg xmlns="http://www.w3.org/2000/svg" xmlns:xlink="http://www.w3.org/1999/xlink" viewBox="0 0 236.99999 136.67238"><defs><style>.a{fill:url(#a);}</style><linearGradient id="a" x1="3.77124" y1="70.55858" x2="239.26831" y2="70.55858" gradientUnits="userSpaceOnUse"><stop offset="0" stop-color="#fff"/><stop offset="0.49757" stop-color="#ccc"/><stop offset="0.55417" stop-color="#b4acac"/><stop offset="0.67107" stop-color="#866f6f"/><stop offset="0.77829" stop-color="#613f3f"/><stop offset="0.87228" stop-color="#471d1d"/><stop offset="0.94937" stop-color="#370808"/><stop offset="1" stop-color="#310000"/></linearGradient></defs><title>bg_fuel</title><path d="M238.98656,138.895h.56074a128.37546,128.37546,0,0,0,.72394-13.56289,124.47943,124.47943,0,0,0-34.88829-86.94,124.50165,124.50165,0,0,1,34.38511,86.41829A128.32552,128.32552,0,0,1,238.98656,138.895Z" transform="translate(-3.27125 -2.22264)"/><path d="M205.383,38.39217a124.50165,124.50165,0,0,1,34.38512,86.41829,128.33042,128.33042,0,0,1-.7815,14.08456h.56073a128.37551,128.37551,0,0,0,.72394-13.5629,124.47936,124.47936,0,0,0-34.88829-86.94Z" transform="translate(-3.27125 -2.22264)"/><path class="a" d="M227.95386,138.39476a116.2211,116.2211,0,0,0,.74121-13.0625c0-60.96777-47.85254-110.56836-106.67236-110.56836-58.81885,0-106.67188,49.60059-106.67188,110.56836a116.24526,116.24526,0,0,0,.74121,13.0625H4.50171a128.26185,128.26185,0,0,1-.73047-13.58447C3.77124,57.491,56.593,2.7224,121.51978,2.7224c31.57861,0,61.23291,12.79053,83.50146,36.01611a123.63208,123.63208,0,0,1,34.24707,86.07178,128.34763,128.34763,0,0,1-.73047,13.58447Z" transform="translate(-3.27125 -2.22264)"/><path d="M121.51965,3.22264c31.44072,0,60.9676,12.7359,83.14147,35.86162a123.13786,123.13786,0,0,1,34.10695,85.72618,127.734,127.734,0,0,1-.68036,13.08457h-9.57562a116.66366,116.66366,0,0,0,.68272-12.56287c0-61.24323-48.07715-111.06822-107.172-111.06822s-107.172,49.825-107.172,111.06822a116.65915,116.65915,0,0,0,.68269,12.56287H4.95159a127.734,127.734,0,0,1-.68034-13.08457A123.09149,123.09149,0,0,1,38.62515,38.822c22.144-22.95659,51.58316-35.59937,82.8945-35.59937m0-1c-65.30677,0-118.2484,54.8844-118.2484,122.5878a128.32565,128.32565,0,0,0,.7815,14.08457H16.65359a115.17868,115.17868,0,0,1-.80272-13.56287c0-60.789,47.53478-110.06822,106.172-110.06822s106.172,49.27919,106.172,110.06822a115.17866,115.17866,0,0,1-.80275,13.56287h11.59451a128.3306,128.3306,0,0,0,.7815-14.08457,124.50162,124.50162,0,0,0-34.38513-86.41827C183.96462,16.05445,154.30121,2.22264,121.51965,2.22264Z" transform="translate(-3.27125 -2.22264)"/><path d="M16.98706,138.51976a115.2737,115.2737,0,0,1-.76123-13.1875c0-60.48535,47.46045-109.69336,105.79688-109.69336s105.79736,49.208,105.79736,109.69336a115.259,115.259,0,0,1-.76172,13.1875Z" transform="translate(-3.27125 -2.22264)"/><path d="M122.02283,16.01391A102.87792,102.87792,0,0,1,196.558,48.02283a110.66776,110.66776,0,0,1,30.88683,77.30931,114.90972,114.90972,0,0,1-.72106,12.81288H17.32192a114.90972,114.90972,0,0,1-.72106-12.81288A110.66771,110.66771,0,0,1,47.48769,48.02283a102.87791,102.87791,0,0,1,74.53514-32.00892m0-.75c-58.63717,0-106.172,49.27917-106.172,110.06823a115.17466,115.17466,0,0,0,.80275,13.56288H227.39205a115.17251,115.17251,0,0,0,.80275-13.56288c0-60.78906-47.53481-110.06823-106.172-110.06823Z" transform="translate(-3.27125 -2.22264)"/></svg>