<svg xmlns="http://www.w3.org/2000/svg" viewBox="0 0 44 208"><defs><style>.a{fill:#fff;}</style></defs><title>zeiger</title><path class="a" d="M24.33494,220.99673a21.49787,21.49787,0,0,1-12.707-38.83984l.18457-.13574L24.33494,19.986,36.8574,182.02115l.18457.13574a21.49787,21.49787,0,0,1-12.707,38.83984Z" transform="translate(-2.33481 -13.49673)"/><path d="M24.33481,26.47541l12.00573,155.355.03535.45752.36992.27153a21,21,0,1,1-24.822,0l.36992-.27153.03535-.45752,12.00572-155.355m0-12.97868L11.33207,181.7534a22,22,0,1,0,26.00549,0L24.33481,13.49673Z" transform="translate(-2.33481 -13.49673)"/></svg>